<svg version="1" xmlns="http://www.w3.org/2000/svg" width="21.333" height="21.333" viewBox="0 0 16.000000 16.000000"><path d="M7.45 1.145a2.17 2.17 0 0 1-.16.015 6.02 6.02 0 0 0-.527.06 12.74 12.74 0 0 0-.437.082l-.187.046a5.015 5.015 0 0 0-.5.144l-.078.027a7.416 7.416 0 0 0-.475.184l-.1.044a13.491 13.491 0 0 0-.48.237 2.066 2.066 0 0 0-.144.08l-.071.041a6.284 6.284 0 0 0-.65.434l-.153.114a4.597 4.597 0 0 0-.208.168l-.11.099a7.939 7.939 0 0 0-.654.666c-.05.053-.318.394-.372.473-.17.246-.31.463-.386.6a1.954 1.954 0 0 0-.094.177c0 .007.045.004.103-.008a8.719 8.719 0 0 1 1.701-.126c.182.003.354.007.382.009l.192.012a12.002 12.002 0 0 1 .968.105c.04.005.128.02.2.031.07.012.175.029.233.04.136.025.129.023.196.037l.105.02.082.018.07.015.11.022.11.024.085.02.086.019a9.716 9.716 0 0 1 .41.1 10.548 10.548 0 0 1 .27.07 11.119 11.119 0 0 1 .39.111c.045.01.3.084.43.125l.238.074c.257.08.735.236.792.257l.102.034.246.085c.208.072.205.072.212.053l.128-.335c.02-.055.068-.171.09-.223l.02-.043a4.048 4.048 0 0 1 .13-.296c.059-.127.2-.401.261-.508l.061-.106.055-.09.075-.113c.146-.224.292-.405.475-.59a2.648 2.648 0 0 1 1.195-.732l.094-.024a2.32 2.32 0 0 1 .348-.06c.101-.008.128-.015.113-.03l-.195-.162a9.393 9.393 0 0 0-.664-.468 10.4 10.4 0 0 0-.239-.142l-.074-.042a9.171 9.171 0 0 0-.71-.343 20.041 20.041 0 0 0-.402-.152 5.864 5.864 0 0 0-.415-.13 43.609 43.609 0 0 1-.374-.093 1.536 1.536 0 0 0-.075-.016l-.097-.018a8.095 8.095 0 0 0-.867-.116c-.122-.01-.806-.015-.86-.006zM12.488 3.9a1.016 1.016 0 0 0-.353.12c-.155.086-.26.169-.404.317-.26.267-.472.62-.659 1.1a6.39 6.39 0 0 0-.186.56.709.709 0 0 0-.014.047l-.02.072a7.088 7.088 0 0 0-.062.235c-.022.086-.025.11-.018.118.01.008.06.025.135.046a9.694 9.694 0 0 0 .325.086l.085.02a5.864 5.864 0 0 0 .35.073.26.26 0 0 0 .041.008 5.697 5.697 0 0 0 .414.055c.158.016.583.012.714-.006.322-.046.565-.132.785-.278a1.38 1.38 0 0 0 .258-.247 1.254 1.254 0 0 0 .229-.773 1.05 1.05 0 0 0-.017-.274 1.62 1.62 0 0 0-.31-.695 1.978 1.978 0 0 0-.375-.354 2.528 2.528 0 0 0-.172-.101 2.736 2.736 0 0 0-.226-.09 1.256 1.256 0 0 0-.52-.04zM14.69 6.891a2.64 2.64 0 0 1-.629.635 2.672 2.672 0 0 1-.632.328 3.023 3.023 0 0 1-.46.129l-.098.02-.09.015-.11.015a5.015 5.015 0 0 1-.41.033 7.731 7.731 0 0 1-1.315-.083 10.693 10.693 0 0 1-.4-.063c-.065-.014-.08-.009-.08.026 0 .011-.005.04-.012.064a1.326 1.326 0 0 0-.02.094l-.023.121a6.782 6.782 0 0 0-.023.117l-.02.098a2.75 2.75 0 0 0-.019.09l-.017.078a5.45 5.45 0 0 1-.047.23l-.028.133c-.004.025-.02.1-.045.203l-.032.145a4.668 4.668 0 0 1-.068.296 24.522 24.522 0 0 1-.353 1.34l-.043.14a15.41 15.41 0 0 1-.312.922l-.032.086-.027.07a12.626 12.626 0 0 1-.246.594l-.092.203c-.042.09-.215.437-.256.515-.117.218-.287.51-.375.645-.29.445-.414.616-.674.93a.532.532 0 0 0-.076.103c.004.003.13.005.284.004a6.219 6.219 0 0 0 1.068-.089l.136-.023a3.812 3.812 0 0 0 .293-.06 3.096 3.096 0 0 0 .344-.089 8.01 8.01 0 0 0 .406-.128l.152-.055a7.468 7.468 0 0 0 1.258-.62l.359-.241c.319-.228.6-.467.89-.76.202-.202.267-.274.45-.496.183-.22.29-.367.453-.613a12.205 12.205 0 0 0 .302-.509c.047-.084.146-.282.188-.373l.043-.096a.64.64 0 0 0 .025-.056l.018-.045a9.98 9.98 0 0 0 .142-.354 7.567 7.567 0 0 0 .147-.457l.02-.066a3.784 3.784 0 0 0 .087-.344l.015-.078c.065-.296.106-.577.138-.952.01-.12.014-.24.014-.516a6.093 6.093 0 0 0-.101-1.21c-.016-.095-.017-.098-.026-.098a.237.237 0 0 0-.04.052zM5.323 7.261a7.317 7.317 0 0 0-.95.101 8.842 8.842 0 0 0-.398.086 4.232 4.232 0 0 0-.238.066 4.79 4.79 0 0 0-1.135.492 2.602 2.602 0 0 0-.683.64c-.06.08-.144.219-.208.345a2.37 2.37 0 0 0-.187.468c-.02.065-.06.232-.07.305a2.84 2.84 0 0 0 .042 1.124l.024.086c.015.057.087.272.1.305l.032.074c.027.063.1.214.119.246.176.3.353.521.574.72.446.403.941.634 1.533.714.111.015.148.016.347.012.272-.004.356-.016.64-.087.148-.037.401-.14.552-.226.558-.32 1.13-.838 1.582-1.438.117-.154.109-.144.267-.378.143-.216.19-.29.326-.527.144-.252.366-.69.476-.942.036-.08.05-.115.09-.201a5.044 5.044 0 0 0 .217-.527c.01-.032.03-.08.059-.15l.044-.113.029-.075.033-.09.043-.117.031-.086.036-.097c.101-.28.128-.367.117-.376a.386.386 0 0 0-.088-.022c-.042-.007-.11-.02-.15-.029a3.5 3.5 0 0 0-.118-.022l-.136-.023a12.449 12.449 0 0 0-.406-.07l-.133-.02-.125-.02a2.24 2.24 0 0 0-.106-.016 1.735 1.735 0 0 1-.101-.014 2.514 2.514 0 0 0-.125-.017 7.436 7.436 0 0 1-.168-.02 11.211 11.211 0 0 0-1.788-.08z"/></svg>