<?xml version="1.0" standalone="no"?>
<!DOCTYPE svg PUBLIC "-//W3C//DTD SVG 20010904//EN"
 "http://www.w3.org/TR/2001/REC-SVG-20010904/DTD/svg10.dtd">
<svg version="1.0" xmlns="http://www.w3.org/2000/svg"
 width="16.000000pt" height="16.000000pt" viewBox="0 0 16.000000 16.000000"
 preserveAspectRatio="xMidYMid meet">
<metadata>
Created by potrace 1.11, written by Peter Selinger 2001-2013
</metadata>
<g transform="translate(0.000000,16.000000) scale(0.000781,-0.000781)"
fill="#000000" stroke="none">
<path d="M9540 19020 c-25 -5 -117 -13 -205 -19 -173 -12 -346 -31 -520 -55
-60 -9 -130 -19 -155 -22 -61 -8 -503 -91 -560 -105 -103 -25 -159 -39 -240
-58 -102 -24 -289 -74 -350 -94 -25 -8 -92 -29 -150 -47 -58 -17 -121 -37
-140 -44 -19 -7 -64 -23 -100 -35 -81 -28 -173 -62 -265 -97 -38 -15 -97 -37
-130 -49 -33 -12 -80 -31 -105 -42 -25 -12 -73 -33 -108 -47 -34 -15 -92 -40
-128 -56 -35 -17 -67 -30 -70 -30 -7 0 -423 -208 -544 -273 -86 -45 -130 -70
-185 -104 -11 -7 -52 -30 -91 -52 -236 -132 -544 -338 -833 -555 -96 -72 -184
-138 -195 -146 -35 -24 -228 -181 -266 -216 -19 -18 -82 -74 -140 -126 -225
-200 -563 -538 -720 -718 -45 -52 -99 -113 -119 -135 -64 -68 -407 -505 -476
-605 -217 -315 -396 -593 -494 -770 -91 -162 -121 -219 -121 -225 0 -9 58 -5
132 10 105 20 320 53 528 79 529 67 1029 92 1650 82 234 -4 454 -9 490 -11 36
-3 146 -10 245 -16 181 -11 512 -40 680 -60 169 -19 470 -59 560 -74 50 -7
164 -26 255 -40 91 -15 225 -37 299 -51 175 -32 165 -30 251 -48 41 -8 102
-20 135 -26 33 -6 80 -16 105 -22 25 -6 65 -14 90 -19 25 -4 88 -17 140 -29
52 -11 115 -25 140 -30 25 -6 74 -17 110 -25 36 -8 85 -20 110 -25 114 -25
333 -78 395 -95 28 -8 86 -23 130 -34 44 -11 132 -34 195 -51 63 -17 131 -35
150 -39 46 -10 396 -109 435 -122 17 -6 46 -15 65 -19 58 -13 385 -108 550
-160 85 -27 223 -70 305 -95 329 -103 941 -302 1015 -329 19 -8 78 -27 130
-44 52 -17 194 -66 315 -108 266 -92 263 -92 271 -68 6 17 96 254 164 429 27
70 88 219 116 285 9 19 19 44 24 55 34 83 67 161 97 225 19 41 51 111 71 155
75 162 255 513 334 650 19 33 54 94 78 135 24 41 55 93 70 115 15 22 58 87 96
145 187 287 374 519 609 756 342 345 614 544 1001 733 169 83 383 166 529 204
33 8 87 23 120 31 119 32 313 65 445 76 130 11 165 20 145 38 -14 12 -191 160
-250 208 -168 137 -630 463 -850 600 -52 33 -262 157 -305 181 -14 8 -56 32
-95 54 -211 118 -709 358 -910 439 -44 17 -100 40 -125 50 -43 17 -252 95
-390 145 -156 56 -421 139 -530 166 -83 20 -439 109 -480 120 -25 6 -67 15
-95 20 -27 5 -84 15 -125 23 -91 18 -279 50 -415 71 -187 28 -334 45 -695 77
-156 14 -1032 20 -1100 8z"/>
<path d="M15990 15494 c-184 -32 -304 -73 -452 -155 -199 -110 -334 -216 -518
-405 -333 -342 -604 -795 -843 -1409 -73 -189 -158 -441 -212 -630 -9 -33 -21
-72 -27 -87 -5 -14 -13 -41 -18 -60 -5 -18 -16 -60 -25 -93 -20 -70 -31 -111
-79 -300 -28 -110 -33 -142 -23 -151 12 -11 77 -33 172 -59 28 -8 93 -26 145
-40 52 -15 114 -31 138 -36 24 -5 47 -11 51 -13 4 -3 41 -12 82 -21 41 -9 90
-21 109 -25 116 -28 334 -74 383 -81 33 -5 62 -11 66 -14 5 -2 28 -7 52 -10
24 -3 67 -9 94 -15 73 -14 257 -37 436 -56 202 -20 746 -15 914 9 412 59 724
169 1005 356 94 62 263 224 331 316 99 136 185 315 232 480 56 200 61 243 61
510 0 220 -2 262 -22 350 -81 372 -190 615 -397 890 -82 109 -282 308 -385
383 -47 34 -89 65 -95 70 -17 14 -178 109 -220 130 -53 26 -227 96 -290 116
-196 61 -477 83 -665 50z"/>
<path d="M18810 11663 c-177 -271 -530 -627 -806 -813 -258 -174 -469 -288
-696 -376 -51 -19 -102 -39 -113 -44 -101 -45 -378 -122 -590 -165 -44 -9
-100 -20 -125 -26 -25 -5 -76 -14 -115 -19 -38 -5 -101 -14 -140 -19 -114 -16
-286 -30 -525 -42 -427 -21 -1096 21 -1685 106 -223 32 -444 67 -513 81 -82
17 -102 11 -102 -34 0 -14 -6 -51 -14 -81 -8 -31 -20 -85 -26 -121 -7 -36 -21
-105 -30 -155 -10 -49 -23 -117 -29 -150 -7 -33 -18 -89 -26 -125 -8 -36 -19
-87 -24 -115 -6 -27 -15 -72 -22 -100 -6 -27 -15 -72 -19 -100 -5 -27 -23
-115 -41 -195 -17 -80 -33 -156 -36 -170 -5 -32 -26 -127 -57 -260 -13 -58
-32 -141 -41 -185 -20 -98 -42 -193 -59 -260 -7 -27 -20 -81 -29 -120 -74
-333 -257 -1045 -361 -1405 -61 -213 -67 -233 -91 -310 -13 -41 -37 -122 -55
-180 -51 -171 -140 -447 -182 -570 -22 -63 -52 -153 -67 -200 -29 -90 -99
-282 -122 -335 -5 -11 -18 -45 -28 -75 -11 -30 -29 -80 -41 -110 -11 -30 -27
-71 -34 -90 -45 -118 -71 -182 -129 -325 -62 -152 -123 -294 -152 -360 -8 -16
-23 -50 -34 -75 -18 -41 -52 -115 -118 -260 -54 -116 -275 -560 -328 -660
-150 -279 -367 -652 -480 -825 -371 -570 -530 -789 -863 -1192 -57 -68 -101
-127 -97 -131 4 -4 167 -7 363 -6 429 1 666 18 1182 84 36 5 119 18 185 30 66
12 145 25 175 30 62 10 170 31 275 55 39 9 84 18 100 21 17 3 46 9 65 14 19 5
67 17 105 26 74 17 110 27 270 74 208 61 394 120 520 165 72 26 159 57 195 70
297 105 832 351 1150 527 170 95 276 156 350 201 47 29 96 59 110 67 38 24
387 257 460 308 408 291 768 597 1140 972 258 259 342 351 577 636 233 282
371 469 579 784 58 88 324 528 324 536 0 2 28 55 63 116 60 108 187 361 240
478 13 30 39 85 56 123 17 37 31 69 31 72 0 2 11 28 24 57 24 52 130 317 181
453 35 94 105 306 144 435 17 58 37 125 45 150 7 25 18 63 24 85 6 22 17 63
25 90 38 135 72 271 87 350 6 33 16 78 20 100 83 380 135 739 177 1220 13 154
17 306 17 660 0 536 -9 661 -84 1275 -5 41 -14 97 -19 125 -5 27 -17 95 -26
150 -21 121 -22 125 -33 125 -4 0 -28 -30 -52 -67z"/>
<path d="M6815 11189 c-421 -18 -789 -57 -1215 -129 -93 -16 -404 -83 -510
-110 -91 -23 -169 -44 -205 -55 -22 -7 -67 -21 -100 -30 -480 -133 -1067 -388
-1454 -630 -322 -202 -631 -492 -874 -818 -77 -104 -184 -281 -266 -442 -116
-228 -149 -311 -240 -600 -26 -83 -76 -297 -90 -390 -62 -395 -62 -821 0
-1160 5 -27 16 -90 24 -140 9 -49 22 -112 30 -140 8 -27 21 -77 31 -110 20
-73 111 -348 129 -390 7 -16 25 -59 40 -95 35 -80 128 -274 152 -315 226 -384
452 -667 735 -922 571 -516 1206 -811 1963 -914 143 -19 190 -21 445 -16 348
6 455 21 820 112 189 47 513 180 706 290 714 408 1446 1072 2025 1840 150 198
140 185 342 485 184 276 243 371 418 675 184 322 468 882 609 1205 46 104 65
148 116 258 19 41 34 76 34 79 0 5 84 203 126 298 29 66 103 253 118 298 13
40 38 103 75 192 8 19 14 34 56 145 10 25 26 68 37 95 11 28 30 79 43 115 13
36 38 103 55 150 18 47 36 96 40 110 5 14 25 70 45 125 130 359 165 470 150
481 -8 6 -58 19 -112 28 -54 10 -141 27 -193 37 -52 11 -120 24 -150 29 -30 4
-109 18 -175 29 -414 74 -444 79 -520 90 -38 6 -115 17 -170 26 -55 8 -127 20
-160 25 -33 6 -94 15 -135 20 -41 5 -100 13 -130 19 -30 5 -102 15 -160 21
-58 6 -154 17 -215 25 -727 94 -1600 134 -2290 104z"/>
</g>
</svg>
