<svg xmlns="http://www.w3.org/2000/svg" viewBox="0 0 1083.116 1083.117"><title>Facebook</title><path d="M802.861 420.154v-61.128c0-9.175.423-16.28 1.28-21.303.856-5.028 2.801-9.975 5.817-14.854 3.015-4.878 7.896-8.25 14.637-10.114 6.746-1.87 15.714-2.801 26.913-2.801h61.121v-122.25h-97.717c-56.539 0-97.147 13.414-121.831 40.242-24.679 26.837-37.017 66.362-37.017 118.599v73.605h-73.186v122.257h73.182v354.707h146.796V542.412h97.71l12.915-122.258h-110.62z"/><path d="M1019.432 870.76c0 61.061-23.861 104.325-70.927 128.59-37.498 19.34-76.624 20.067-77.844 20.084h-658.3c-61.063 0-104.33-23.862-128.599-70.927-19.548-37.909-20.077-77.477-20.08-77.747V212.362c0-61.064 23.862-104.328 70.926-128.598 37.909-19.547 77.478-20.078 77.752-20.08h658.393c61.062 0 104.33 23.862 128.596 70.925 19.547 37.911 20.078 77.479 20.082 77.753V870.76zm37.757-762.9C1032.586 58.655 980.272 0 870.754 0H212.362c-2.151 0-53.237.294-104.501 25.925C58.655 50.53 0 102.845 0 212.362V870.76c0 2.149.295 53.233 25.926 104.495 24.602 49.205 76.917 107.862 186.436 107.862h658.393c2.149 0 53.235-.296 104.499-25.927 49.21-24.603 107.862-76.918 107.862-186.431V212.362c0-2.149-.296-53.237-25.927-104.502"/></svg>