<svg xmlns="http://www.w3.org/2000/svg" viewBox="0 0 1083.116 1083.117"><title>Instagram</title><path d="M1019.432 870.76c0 61.061-23.861 104.325-70.927 128.59-37.498 19.34-76.624 20.067-77.844 20.084h-658.3c-61.063 0-104.33-23.862-128.599-70.927-19.548-37.909-20.077-77.477-20.08-77.747V212.362c0-61.064 23.862-104.328 70.926-128.598 37.909-19.547 77.478-20.078 77.752-20.08h658.393c61.062 0 104.33 23.862 128.596 70.925 19.547 37.911 20.078 77.479 20.082 77.753V870.76zm37.757-762.899C1032.586 58.656 980.272 0 870.754 0H212.362c-2.151 0-53.237.294-104.501 25.925C58.655 50.53 0 102.845 0 212.362V870.76c0 2.149.295 53.233 25.926 104.495 24.602 49.205 76.917 107.862 186.436 107.862h658.393c2.149 0 53.235-.296 104.499-25.927 49.21-24.603 107.862-76.918 107.862-186.431V212.362c0-2.149-.296-53.237-25.927-104.501"/><path d="M866.673 281.3c35.899 0 64.974-29.107 64.974-64.978s-29.074-64.978-64.974-64.978c-35.904 0-64.979 29.107-64.979 64.978s29.075 64.978 64.979 64.978M541.558 830.005c-77.048 0-149.483-30.001-203.961-84.478-54.479-54.478-84.482-126.914-84.482-203.966 0-77.054 30.003-149.492 84.482-203.97 54.478-54.477 126.912-84.478 203.961-84.478 77.041 0 149.473 30.001 203.953 84.478 54.484 54.48 84.49 126.919 84.49 203.971 0 77.05-30.006 149.486-84.49 203.966-54.48 54.476-126.912 84.477-203.953 84.477zm0-511.892c-59.687 0-115.799 23.241-158 65.44-42.202 42.202-65.444 98.316-65.444 158.008 0 59.689 23.242 115.803 65.444 158.003 42.201 42.2 98.313 65.44 158 65.44 59.68 0 115.789-23.24 157.993-65.44 42.206-42.203 65.45-98.316 65.45-158.003 0-59.689-23.244-115.804-65.45-158.007-42.204-42.2-98.313-65.441-157.993-65.441z"/></svg>