<svg version="1.1" xmlns="http://www.w3.org/2000/svg" xmlns:xlink="http://www.w3.org/1999/xlink" x="0px" y="0px" viewBox="0 0 1083.117 1083.117" xml:space="preserve"><title>Menu</title><path d="M1009.683,0H76.045c0,0-75.33,0-75.33,75.332v933.637c0,0,0,75.332,75.33,75.332h933.638 c0,0,75.309,0,75.309-75.332V75.332C1084.992,75.332,1084.992,0,1009.683,0z M809.251,858.889H276.487 c-31.918,0-57.795-25.889-57.795-57.805c0-31.918,25.877-57.807,57.795-57.807h532.765c31.918,0,57.807,25.889,57.807,57.807 C867.058,833,841.169,858.889,809.251,858.889z M809.251,609.08H276.487c-31.918,0-57.795-25.889-57.795-57.805 c0-31.918,25.877-57.795,57.795-57.795h532.765c31.918,0,57.807,25.877,57.807,57.795 C867.058,583.191,841.169,609.08,809.251,609.08z M809.251,359.293H276.487c-31.918,0-57.795-25.877-57.795-57.795 c0-31.916,25.877-57.795,57.795-57.795h532.765c31.918,0,57.807,25.879,57.807,57.795 C867.058,333.416,841.169,359.293,809.251,359.293z"/></svg>
