<svg xmlns="http://www.w3.org/2000/svg" viewBox="0 0 1083.117 1083.117"><title>Menu</title><path d="M1009.683 0H76.045S.715 0 .715 75.332v933.637s0 75.332 75.33 75.332h933.638s75.309 0 75.309-75.332V75.332S1084.992 0 1009.683 0zM809.251 858.889H276.487c-31.918 0-57.795-25.889-57.795-57.805 0-31.918 25.877-57.807 57.795-57.807h532.765c31.918 0 57.807 25.889 57.807 57.807-.001 31.916-25.89 57.805-57.808 57.805zm0-249.809H276.487c-31.918 0-57.795-25.889-57.795-57.805 0-31.918 25.877-57.795 57.795-57.795h532.765c31.918 0 57.807 25.877 57.807 57.795-.001 31.916-25.89 57.805-57.808 57.805zm0-249.787H276.487c-31.918 0-57.795-25.877-57.795-57.795 0-31.916 25.877-57.795 57.795-57.795h532.765c31.918 0 57.807 25.879 57.807 57.795-.001 31.918-25.89 57.795-57.808 57.795z"/></svg>